<svg xmlns="http://www.w3.org/2000/svg" viewBox="0 0 205 205">
  <defs>
    <style>
      .a {
        fill: #fff;
      }

      .b {
        fill: #017737;
      }
    </style>
  </defs>
  <g>
    <circle class="a" cx="102.5" cy="102.5" r="100"/>
    <path class="b" d="M162.2,122.6a36.9,36.9,0,0,1-1,8.4c0,.1-.1.2-.1.4-1.7,5.3-6,7.6-11.3,5.9a28.7,28.7,0,0,1-8.6-4.7c-6.7-5.4-14.5-7.4-22.7-8.3a54.2,54.2,0,0,0-14.5.1,12.4,12.4,0,0,0-3.8,1.4,4.8,4.8,0,0,0-2.1,6.5c1.8,4.4,3.8,8.9,5.6,13.4a8.6,8.6,0,0,0,3.8,4.2,18.8,18.8,0,0,1,2.3,1.6c2.8,2.2,2.4,6-.9,7.3-4.9,2.1-9.9,4-14.9,5.9a3.8,3.8,0,0,1-4.2-.8,13.2,13.2,0,0,1-3.6-5.4c-2.6-5.8-5.2-11.6-7.7-17.4a3.9,3.9,0,0,0-2-2l-2.8-.8a10,10,0,0,1-6.1-3.7.9.9,0,0,0-1.2-.4L62,135.9a10.3,10.3,0,0,1-7.9-.4c-4.8-2.1-8.4-5.3-10.3-10.4a16.6,16.6,0,0,1-.4-10.1,23,23,0,0,1,1.2-3.4,10,10,0,0,1,5.5-5.4A187.9,187.9,0,0,0,72.7,95.3c6.7-3.8,13.2-7.9,18.9-13.3A56.2,56.2,0,0,0,107,57.7a33.2,33.2,0,0,0,1.1-6.3,22.8,22.8,0,0,1,2.3-6.8c1.7-3,4.2-4.8,7.7-4.6a12.2,12.2,0,0,1,5.5,2,45.3,45.3,0,0,1,9.6,8.4,109.5,109.5,0,0,1,17,26.1,124.6,124.6,0,0,1,10.6,31.9A91.1,91.1,0,0,1,162.2,122.6Zm-11.9-5.2a77.9,77.9,0,0,0-2.9-18.1,103.7,103.7,0,0,0-15.5-32.1,61.3,61.3,0,0,0-9.1-10.5,18.8,18.8,0,0,0-2.3-1.6c-.9-.5-1.4-.3-1.8.7a9.4,9.4,0,0,0-.4,1.6,39.6,39.6,0,0,0,.1,11.4,89,89,0,0,0,9.3,31,76.2,76.2,0,0,0,14.9,19.9,27.3,27.3,0,0,0,4.7,3.5c1.2.7,2,.4,2.3-1S150.1,118.5,150.3,117.4Z"/>
  </g>
</svg>
