<svg xmlns="http://www.w3.org/2000/svg" viewBox="0 0 205 205">
  <defs>
    <style>
      .a {
        fill: #231f20;
      }

      .b {
        fill: #fff;
      }
    </style>
  </defs>
  <g>
    <circle class="a" cx="102.5" cy="102.5" r="100"/>
    <g>
      <path class="b" d="M71.9,139.6h7.2v-3.4H52.6c-7.3-.1-12.5-5.2-12.6-12.5V70.1A12.3,12.3,0,0,1,52.7,57.8h47.8c11.6,0,23.1.1,34.6,0,7.6-.2,13.8,5.4,13.4,13.3-.2,3,0,6.1,0,9.4H127.3c-7.3,0-12.4,5.1-12.4,12.4v43.2h-5.4v3.3h5.1l2.3,6.7h-45Zm4.3-62.8c0,5.5.1,10.8,0,16.2a56.2,56.2,0,0,1-.8,9.2c-.6,2.8-3.1,3.6-5.8,3.7a4.8,4.8,0,0,1-5-3.3,14.4,14.4,0,0,1-1-5.4c-.2-5.7-.1-11.4-.1-17V76.9H55.6c0,7.6-.2,15,.1,22.5a12.5,12.5,0,0,0,2.8,8.1c4.3,5,9.9,5.6,15.7,4.3,3.1-.7,6.1-2.2,7.5-5.3a26.9,26.9,0,0,0,2.2-8.3c.3-6.6.2-13.3.2-19.9a10.4,10.4,0,0,0-.2-1.5Zm22.5,34.9V76.9H91v34.8Z"/>
      <path class="b" d="M165,115.6V138c0,5.8-3.5,9.2-9.2,9.2-9.4.1-18.9.1-28.3,0-5.7,0-9.3-3.4-9.3-9.1V93.3c0-5.9,3.5-9.4,9.5-9.4h28.2c5.5,0,9,3.6,9,9.1.1,7.5,0,15.1,0,22.6Zm-43.1-20v4.2c-.1,12.7-.1,25.4-.1,38.2q0,5.7,5.7,5.7h27.8c4.5,0,6.2-1.7,6.2-6.2-.1-13.3-.1-26.6-.1-39.9,0-.6-.1-1.3-.1-2Zm39.2-1.5c.8-4-1.2-6.7-5.1-6.7H127.4c-4,0-6.1,2.6-5.4,6.7Z"/>
      <path class="b" d="M129,108.6l3-.2v7.7c.1,2.8.9,4.1,2.7,4.1s2.5-1.1,2.6-4.1v-7.5h3c.1,3.8.7,7.8-.8,11.6-.7,2-3.5,2.9-6,2.5s-4.2-1.8-4.4-4.5S129,111.9,129,108.6Z"/>
      <path class="b" d="M154.1,122.2c-4.3,1.6-4.3-2.3-5.9-4.4-1.6,1.9-1.4,6-5.8,4.4,1.1-1.8,2-3.6,3.1-5.3a2.3,2.3,0,0,0,0-2.9c-1.1-1.7-2-3.4-3-5.2,4.5-1.9,4.1,2.5,5.9,4.2,1.4-2,1-6.2,5.5-4.2-1,1.8-2.1,3.5-3,5.3a3.6,3.6,0,0,0,0,2.5C151.8,118.5,153,120.3,154.1,122.2Z"/>
      <path class="b" d="M139.1,139c.8-.5,1.5-1.5,2.4-1.7a1.8,1.8,0,0,1,2.2,2.2,3.2,3.2,0,0,1-2.1,2c-.8.1-1.7-.9-2.5-1.5Z"/>
      <path class="b" d="M153.1,91.2H130.3C131.9,89.8,151.2,89.8,153.1,91.2Z"/>
    </g>
  </g>
</svg>
