<svg xmlns="http://www.w3.org/2000/svg" viewBox="0 0 205 205">
  <path d="M199.4541,69.92A28.3084,28.3084,0,0,0,202.5,68.5V27.7h-74l-4.95,9.4625-.65-.02V27.7H2.5V93.3H27.9791v15.6H2.5v68.4H121.7l6.5174-14.0153.6826.0661V177.3h73.6V136.1a.7048.7048,0,0,0-.1756-.0933c-4.6636-.9483-5.6426-3.79-5.56-8.3879.3206-17.8244.174-35.6583.0744-53.488C196.8266,71.9485,197.3657,70.62,199.4541,69.92Zm-6.4092,3.3353c.1322,19.4634.0662,38.9281.0662,58.3925a9.7659,9.7659,0,0,1-.0043.9994c-.2647,2.56.5612,4.3829,3.2838,4.9768,1.8483.4032,2.3927,1.5052,2.3715,3.43-.11,9.9311-.051,19.8638-.051,29.7959v2.4369H132.4747v-27.12l-.35-.1048q-2.9712,6.2493-5.9405,12.5c-2.0747,4.3921-4.163,8.7783-6.1746,13.1993a2.378,2.378,0,0,1-2.5267,1.6492q-54.5932-.07-109.1868-.037H6.4089v-60.626H31.7566V89.535H6.4253V31.6493H119.2322v21.652l.3269.1133c.3093-.5311.6454-1.0486.9238-1.5955,3.2014-6.2868,6.4168-12.5667,9.5661-18.88a2.2,2.2,0,0,1,2.2561-1.4758q32.396.054,64.7921.0313c.4518,0,.9034.0722,1.4971.1227.0419.7269.1114,1.3724.1119,2.0182.0068,10.1321-.0266,20.2644.0392,30.3961.01,1.4854-.3869,2.44-1.8159,2.86C193.6944,67.8416,193.0233,70.0722,193.0449,73.2553Zm-2.7194-11.24a2.54,2.54,0,0,0,.9282-1.891c.0665-6.6652.0427-13.3313.0332-19.9972a8.2905,8.2905,0,0,0-.1461-1.1106,5.6205,5.6205,0,0,0-.6982-.1011c-17.9311-.0062-35.8624.0108-53.7933-.0493-1.3265-.0044-1.6823.7077-2.144,1.6186q-11.51,22.7058-23.045,45.3994c-1.6079,3.1647-3.24,6.3172-5.006,9.7588,0-9.1623-.0214-17.919.0123-26.6754a7.0183,7.0183,0,0,1,3.9072-6.511,2.4537,2.4537,0,0,0,1.4153-2.5319c-.0629-6.3987-.026-12.7982-.0353-19.1974-.0007-.571-.0831-1.1421-.1248-1.6748H13.81V81.9772H50.16c0-1.0349-.0647-1.96.0124-2.8723a53.6981,53.6981,0,0,1,.8205-7.5183,6.116,6.116,0,0,1,2.3812-3.699c3.3061-1.874,7.053-1.9077,10.7463-1.7671V88.8119H39.432v24.7192H64.18v25.35c-1.3859,0-2.6462.0577-3.9-.0094-7.4632-.399-9.3324-2.2163-9.8393-9.6425-.2066-3.0268-.2879-6.0622-.426-9.09H13.85v45.8864h2.3119q47.9943,0,95.9884.0461a3.1769,3.1769,0,0,0,3.43-2.16c3.97-8.6468,8.0583-17.2389,12.1558-25.8261.2986-.6259.9856-1.5066,1.5079-1.5176,5.3167-.1123,10.6365-.0686,15.9677-.0686-.2415,3.037-1.0863,4.5513-3.7761,6.07a2.77,2.77,0,0,0-1.55,2.8629c.0646,4.9319.0256,9.8651.0255,14.7979v5.64h51.3831c0-7.2175.03-14.28-.0545-21.3418a2.6585,2.6585,0,0,0-1.2253-1.7038,7.9363,7.9363,0,0,1-3.985-6.1238c-.116-1.3256-.3187-2.6518-.32-3.9777q-.0309-30.2964-.0062-60.5928c0-.9963.1242-1.9923.18-2.9889A8.361,8.361,0,0,1,190.3255,62.0158Zm-45.1288,57.5809H137.64l7.2495-14.8266.3075.0592Z"/>
</svg>
