<svg xmlns="http://www.w3.org/2000/svg" viewBox="0 0 205 205">
  <defs>
    <style>
      .a {
        fill: #231f20;
      }
    </style>
  </defs>
  <path class="a" d="M102.5,2.5a100,100,0,1,0,100,100A100,100,0,0,0,102.5,2.5ZM74.1,125.3c-2.4,2.8-6.1,3.1-9.3.5L43.1,108c-4.3-3.6-4.1-7.7.3-11.2,6.8-5.6,13.5-11.2,20.4-16.7a11.2,11.2,0,0,1,4.4-2.4,6,6,0,0,1,6.9,3.7c1.3,2.8.6,5.6-2,7.8L58.8,100.9a18.1,18.1,0,0,1-1.9,1.7l10,8.2c2,1.7,4.2,3.3,6.2,5.1S76.6,122.4,74.1,125.3Zm46.3-49.6-7.2,15.4L93.4,133c-.9,2.1-2.3,3.6-4.8,3.5s-5.6-3.4-4.1-6.8,4.1-8.8,6.2-13.3c6.9-14.6,13.7-29.4,20.7-44a8.3,8.3,0,0,1,3.6-3.6,4,4,0,0,1,4.8,1.3A4.8,4.8,0,0,1,120.4,75.7Zm42,31.8c-7.5,6.3-15,12.5-22.7,18.7a6.4,6.4,0,0,1-9.1-1.1,6.2,6.2,0,0,1,1-8.9c4.3-3.8,8.9-7.3,13.3-11l3.1-2.7L132.4,89.7c-2.1-1.7-3.6-3.8-3.1-6.6a6.4,6.4,0,0,1,10.6-4c7.6,6,15.1,12.2,22.6,18.5C165.8,100.4,165.8,104.7,162.4,107.5Z"/>
</svg>
