<svg xmlns="http://www.w3.org/2000/svg" viewBox="0 0 205 205">
  <defs>
    <style>
      .a {
        fill: #231f20;
      }
    </style>
  </defs>
  <path class="a" d="M91,76.9h7.7v34.8H91Zm31,17.2c-.7-4.1,1.4-6.7,5.4-6.7H156c3.9,0,5.9,2.7,5.1,6.7Zm8.3-2.9h22.8C151.2,89.8,131.9,89.8,130.3,91.2Zm31.1,6.4c0,13.3,0,26.6.1,39.9,0,4.5-1.7,6.2-6.2,6.2H127.5q-5.7,0-5.7-5.7c0-12.8,0-25.5.1-38.2V95.6h39.4C161.3,96.3,161.4,97,161.4,97.6Zm-21.9,22.6c1.5-3.8.9-7.8.8-11.6h-3v7.5c-.1,3-.8,4.2-2.6,4.1s-2.6-1.3-2.7-4.1v-7.7l-3,.2c0,3.3-.2,6.5.1,9.6s1.9,4.1,4.4,4.5S138.8,122.2,139.5,120.2Zm2,17.1c-.9.2-1.6,1.2-2.4,1.7v1c.8.6,1.7,1.6,2.5,1.5a3.2,3.2,0,0,0,2.1-2A1.8,1.8,0,0,0,141.5,137.3Zm12.6-15.1c-1.1-1.9-2.3-3.7-3.2-5.6a3.6,3.6,0,0,1,0-2.5c.9-1.8,2-3.5,3-5.3-4.5-2-4.1,2.2-5.5,4.2-1.8-1.7-1.4-6.1-5.9-4.2,1,1.8,1.9,3.5,3,5.2a2.3,2.3,0,0,1,0,2.9c-1.1,1.7-2,3.5-3.1,5.3,4.4,1.6,4.2-2.5,5.8-4.4C149.8,119.9,149.8,123.8,154.1,122.2Zm-70-43.9a10.4,10.4,0,0,0-.2-1.5H76.2c0,5.5.1,10.8,0,16.2a56.2,56.2,0,0,1-.8,9.2c-.6,2.8-3.1,3.6-5.8,3.7a4.8,4.8,0,0,1-5-3.3,14.4,14.4,0,0,1-1-5.4c-.2-5.7-.1-11.4-.1-17V76.9H55.6c0,7.6-.2,15,.1,22.5a12.5,12.5,0,0,0,2.8,8.1c4.3,5,9.9,5.6,15.7,4.3,3.1-.7,6.1-2.2,7.5-5.3a26.9,26.9,0,0,0,2.2-8.3C84.2,91.6,84.1,84.9,84.1,78.3Zm118.4,24.2a100,100,0,1,1-100-100A100,100,0,0,1,202.5,102.5Zm-85.6,43.7-2.3-6.7h-5.1v-3.3h5.4V93c0-7.3,5.1-12.4,12.4-12.4h21.2c0-3.3-.2-6.4,0-9.4.4-7.9-5.8-13.5-13.4-13.3-11.5.1-23,0-34.6,0H52.7A12.3,12.3,0,0,0,40,70.1v53.6c.1,7.3,5.3,12.4,12.6,12.5H79.1v3.4H71.9v6.6ZM165,115.6h-.1c0-7.5.1-15.1,0-22.6,0-5.5-3.5-9.1-9-9.1H127.7c-6,0-9.5,3.5-9.5,9.4v44.8c0,5.7,3.6,9.1,9.3,9.1,9.4.1,18.9.1,28.3,0,5.7,0,9.2-3.4,9.2-9.2Z"/>
</svg>
