<svg xmlns="http://www.w3.org/2000/svg" viewBox="0 0 205 205">
  <defs>
    <style>
      .a {
        fill: #231f20;
      }

      .b {
        fill: #fff;
      }
    </style>
  </defs>
  <g>
    <circle class="a" cx="102.5" cy="102.5" r="100"/>
    <path class="b" d="M150.2,76.5a109.5,109.5,0,0,0-17-26.1,45.3,45.3,0,0,0-9.6-8.4,12.2,12.2,0,0,0-5.5-2c-3.5-.2-6,1.6-7.7,4.6a22.8,22.8,0,0,0-2.3,6.8,33.2,33.2,0,0,1-1.1,6.3A56.2,56.2,0,0,1,91.6,82c-5.7,5.4-12.2,9.5-18.9,13.3a187.9,187.9,0,0,1-22.6,10.9,10,10,0,0,0-5.5,5.4,23,23,0,0,0-1.2,3.4,16.6,16.6,0,0,0,.4,10.1c1.9,5.1,5.5,8.3,10.3,10.4a10.3,10.3,0,0,0,7.9.4l4.4-1.7a.9.9,0,0,1,1.2.4,10,10,0,0,0,6.1,3.7l2.8.8a3.9,3.9,0,0,1,2,2c2.5,5.8,5.1,11.6,7.7,17.4a13.2,13.2,0,0,0,3.6,5.4,3.8,3.8,0,0,0,4.2.8c5-1.9,10-3.8,14.9-5.9,3.3-1.3,3.7-5.1.9-7.3a18.8,18.8,0,0,0-2.3-1.6,8.6,8.6,0,0,1-3.8-4.2c-1.8-4.5-3.8-9-5.6-13.4a4.8,4.8,0,0,1,2.1-6.5,12.4,12.4,0,0,1,3.8-1.4,54.2,54.2,0,0,1,14.5-.1c8.2.9,16,2.9,22.7,8.3a28.7,28.7,0,0,0,8.6,4.7c5.3,1.7,9.6-.6,11.3-5.9,0-.2.1-.3.1-.4a36.9,36.9,0,0,0,1-8.4,91.1,91.1,0,0,0-1.4-14.2A124.6,124.6,0,0,0,150.2,76.5Zm-.6,45.7c-.3,1.4-1.1,1.7-2.3,1a27.3,27.3,0,0,1-4.7-3.5,76.2,76.2,0,0,1-14.9-19.9,89,89,0,0,1-9.3-31,39.6,39.6,0,0,1-.1-11.4,9.4,9.4,0,0,1,.4-1.6c.4-1,.9-1.2,1.8-.7a18.8,18.8,0,0,1,2.3,1.6,61.3,61.3,0,0,1,9.1,10.5,103.7,103.7,0,0,1,15.5,32.1,77.9,77.9,0,0,1,2.9,18.1C150.1,118.5,149.9,120.4,149.6,122.2Z"/>
  </g>
</svg>
