<svg xmlns="http://www.w3.org/2000/svg" viewBox="0 0 205 205">
  <defs>
    <style>
      .a {
        fill: #231f20;
      }

      .b {
        fill: #fff;
      }
    </style>
  </defs>
  <g>
    <circle class="a" cx="102.5" cy="102.5" r="100"/>
    <g>
      <path class="b" d="M144.9,105.2c-4.4,3.7-9,7.2-13.3,11a6.2,6.2,0,0,0-1,8.9,6.4,6.4,0,0,0,9.1,1.1c7.7-6.2,15.2-12.4,22.7-18.7,3.4-2.8,3.4-7.1.1-9.9-7.5-6.3-15-12.5-22.6-18.5a6.4,6.4,0,0,0-10.6,4c-.5,2.8,1,4.9,3.1,6.6L148,102.5Z"/>
      <path class="b" d="M58.8,100.9,73.1,89.2c2.6-2.2,3.3-5,2-7.8a6,6,0,0,0-6.9-3.7,11.2,11.2,0,0,0-4.4,2.4c-6.9,5.5-13.6,11.1-20.4,16.7-4.4,3.5-4.6,7.6-.3,11.2l21.7,17.8c3.2,2.6,6.9,2.3,9.3-.5s2.2-6.6-1-9.4-4.2-3.4-6.2-5.1l-10-8.2A18.1,18.1,0,0,0,58.8,100.9Z"/>
      <path class="b" d="M93.4,133l19.8-41.9,7.2-15.4a4.8,4.8,0,0,0-.6-5.6,4,4,0,0,0-4.8-1.3,8.3,8.3,0,0,0-3.6,3.6c-7,14.6-13.8,29.4-20.7,44-2.1,4.5-4.3,8.9-6.2,13.3s.6,6.8,4.1,6.8S92.5,135.1,93.4,133Z"/>
    </g>
  </g>
</svg>
