<svg xmlns="http://www.w3.org/2000/svg" viewBox="0 0 205 205">
  <defs>
    <style>
      .a {
        fill: #231f20;
      }

      .b {
        fill: #fff;
      }
    </style>
  </defs>
  <g>
    <circle class="a" cx="102.5" cy="102.5" r="100"/>
    <path class="b" d="M133.5,92.3a8,8,0,0,1,5.7-3.3c11-1.5,20.5-9.8,21.1-23.2a53.4,53.4,0,0,0-2.8-19.4,33.4,33.4,0,0,0-1.7-4.4c-.8-2-2.9-2.6-4.3-1.3a7.2,7.2,0,0,0-1.4,2.6,60.8,60.8,0,0,1-2.1,6,6.2,6.2,0,0,1-5.9,4,42.1,42.1,0,0,1-6.2-.5c-5.7-1.1-10,1.2-13.4,5.5A20.7,20.7,0,0,0,118.4,71a2.6,2.6,0,0,1-1.1,2.1L103.5,84.7l-4.4,3.7-.9-1.2L79.1,68.1a6.5,6.5,0,0,0-1.6-1.3L48.9,53.4a3.7,3.7,0,0,0-2.1-.3c-2,.4-2.7,2.4-1.8,4.4L58,85.1a15.1,15.1,0,0,0,1.8,2.6l21.1,21a3.2,3.2,0,0,0,1.2.8L81,110.9l-6.8,7.3c-8.3,9.3-16.5,18.8-23.5,29.2a60.7,60.7,0,0,0-4.8,9.1,4,4,0,0,0,.2,4.1c1.1,1.8,3.1,2.4,5.6,1.5,4.9-1.7,9.1-4.7,13.2-7.8C76.3,146,86.8,136.6,97.2,127l1.1-1.1,1,1.3,36,35.9a21.1,21.1,0,0,0,2.3,1.9h1.3a4.7,4.7,0,0,0,1.2-.7l5.7-5.9,4.7-4.4h-.1l5.4-5.2a2.6,2.6,0,0,0,.5-2.9,6.2,6.2,0,0,0-1.4-1.9l-34.2-34.1c-.3-.4-.8-.5-1.2-.8l.8-1C124.7,102.8,129.2,97.6,133.5,92.3Zm-73.2-16c-1-2.1-2-4.3-3.1-6.5a1,1,0,0,1,.2-1.4c.9-.8,1.7-1.8,2.7-2.6a1.4,1.4,0,0,1,1.1-.2L71,70.2h.1l-9.2,9.3Zm55.4,28.1L103.6,92.3l17-14.4,9.5,9.4Z"/>
  </g>
</svg>
