<svg xmlns="http://www.w3.org/2000/svg" viewBox="0 0 205 205">
  <defs>
    <style>
      .a {
        fill: #fff;
      }

      .b {
        fill: #017737;
      }
    </style>
  </defs>
  <g>
    <circle class="a" cx="102.5" cy="102.5" r="100"/>
    <g>
      <path class="b" d="M99.4,81.3v1.5c.1,12.9.1,25.8.1,38.7,0,3.1-.1,6.2,0,9.2a2.3,2.3,0,0,1-1.4,2.4,8.8,8.8,0,0,0-3.4,12.2,8.9,8.9,0,0,0,12.6,2.9,8.7,8.7,0,0,0,2.4-12.4,13.4,13.4,0,0,0-3.1-2.7,2.6,2.6,0,0,1-1.3-2.3V82.2c0-.3.1-.6.1-.9h.2l.6.9,15.6,23.7,9.3,14.3a4.8,4.8,0,0,1,.7,4.2c-2.4,9.3-4.7,18.5-7,27.8a8.7,8.7,0,0,0-.2,1h4.3a3,3,0,1,1,0,5.9H76.6a5.4,5.4,0,0,1-2.2-.5,2.2,2.2,0,0,1-1.7-2.7,2.8,2.8,0,0,1,2.6-2.7h4.9L79,147.9l-6-23.6a4.8,4.8,0,0,1,.7-4.2L96.5,85.3l2.6-4Z"/>
      <path class="b" d="M117.3,57.9h29a2.2,2.2,0,0,0,2-1.3,8.7,8.7,0,0,1,8.9-4.6A8.9,8.9,0,1,1,149,66.3c-.4-.6-.7-1.2-1.1-1.7s-.7-.7-1.1-.7H135.7l.9.6c8.8,5.4,15.9,12.4,20.7,21.6a55.2,55.2,0,0,1,6.5,25.5,6.4,6.4,0,0,1-.3,2,2.6,2.6,0,0,1-2.7,1.7,2.4,2.4,0,0,1-2.5-1.7,5.2,5.2,0,0,1-.4-2.1,48.3,48.3,0,0,0-4.7-20.2c-7.1-14.5-18.6-23.7-34.4-27.4l-1-.2h-.5v8.1c0,2.5-1.1,3.6-3.6,3.6H91.1c-2.6,0-3.6-1-3.6-3.6V63.9l-1.9.3a48.1,48.1,0,0,0-18.5,8.5C56.7,80.1,50.5,90.3,48,102.8c-.6,2.8-.7,5.7-1.1,8.6a4.7,4.7,0,0,1-.2,1.7,2.9,2.9,0,0,1-5.7-.4,32.5,32.5,0,0,1,.2-5.4A55.7,55.7,0,0,1,67.7,65l1.7-1.1h-.8c-3.2,0-6.4.1-9.7,0a2.3,2.3,0,0,0-2.1,1.3,8.3,8.3,0,0,1-5.4,4.3A8.9,8.9,0,1,1,47,52.2c4.2-.9,7.5.6,9.7,4.3a2.3,2.3,0,0,0,2.4,1.4H87.5V49.3A3,3,0,0,1,90.8,46q11.5-.2,23.1,0c2.3,0,3.3,1.1,3.4,3.3v8.6Z"/>
      <path class="b" d="M99.4,140.7c.1-1.7,1.1-2.6,3.2-2.5s2.8,1,2.7,2.6a2.9,2.9,0,0,1-3,3A3.1,3.1,0,0,1,99.4,140.7Z"/>
    </g>
  </g>
</svg>
