<svg xmlns="http://www.w3.org/2000/svg" width="205" height="205" viewBox="0 0 205 205">
  <defs>
    <style>
      .a {
        fill: #231f20;
      }
    </style>
  </defs>
  <path class="a" d="M99.7,88.3A16.2,16.2,0,0,1,110,74.6c1.5-.5,2.6-.3,3.2,1.3a4.7,4.7,0,0,0,4.4,3,4.6,4.6,0,0,0,4.6-3c.7-1.6,1.8-1.8,3.3-1.3a16.2,16.2,0,0,1,10.2,14.1c.1,2-.8,2.8-2.9,2.8h-30C100.3,91.5,99.6,90.8,99.7,88.3Zm17.8-16.8a9.5,9.5,0,1,0,.5-19,9.5,9.5,0,1,0-.5,19Zm19.4,61.4c-.3-.3-62.4-.1-68.2-.1-1.3,0-2.4.4-2.5,2s1.2,1.9,2.5,2,68,.1,68.6-.2,1.5-1.3,1.4-1.9S137.6,133.3,136.9,132.9ZM102.3,148H68.9c-1.4,0-2.6.3-2.7,2s1.3,2,2.7,2h33.4c1.4,0,2.8-.4,2.8-2.1S103.8,148,102.3,148Zm100.2-44.1c-.8,54.5-45.8,99.1-101.2,98.6S2.3,157,2.5,101.7,47.7,2.4,102.7,2.5,203.3,48.3,202.5,103.9Zm-51.1-1.3V39c0-2.8-.5-3.4-3.2-3.4H75.7a5.2,5.2,0,0,0-3.3,1.4c-5.7,5.5-11.3,11.3-17,16.9a5.4,5.4,0,0,0-1.9,4.3q.2,53.6.1,107.1c0,3.7.3,4,4,4h90c3.4,0,3.8-.5,3.8-3.9Zm-14.3-.2c-.4-.2-1,0-1.5,0H102.7c-11-.1-21.9-.1-32.9,0-.6,0-1.4-.2-1.9.1a3.3,3.3,0,0,0-1.6,1.9c0,.5.9,1.3,1.5,1.8s1.1.1,1.7.1h66c.6,0,1.4.1,1.8-.2s1.4-1.3,1.4-1.9S137.7,102.9,137.1,102.4ZM68,121.5c.3.2,68.8.2,69.3-.2a2.8,2.8,0,0,0,1.4-1.9c-.1-.6-.9-1.3-1.6-1.7s-68.6-.3-69-.1-1.7,1.3-1.8,2S67.3,121,68,121.5Z"/>
</svg>
