<svg xmlns="http://www.w3.org/2000/svg" viewBox="0 0 205 205">
  <defs>
    <style>
      .a {
        fill: #231f20;
      }
    </style>
  </defs>
  <path class="a" d="M84.3,153.5c.1,0,.1.2.1.5a55,55,0,0,1-26.7-20.2c5.1,0,9.7-.1,14.4,0a1.3,1.3,0,0,1,1.1.8A70.6,70.6,0,0,0,84.3,153.5Zm14.2,2.8V133.9H81.3A58.9,58.9,0,0,0,98.5,156.3ZM79.4,125.9H98.5V106.5h-23a4.3,4.3,0,0,1-.1.5,74.2,74.2,0,0,0,2.8,18.1C78.3,125.4,79,125.8,79.4,125.9Zm5-74.7a52.9,52.9,0,0,0-26.6,20H72.9A76.5,76.5,0,0,1,84.4,51.2ZM69.9,125.9c-.9-6.6-1.8-13-2.7-19.4h-19c-.1.2-.2.4-.1.5a51.5,51.5,0,0,0,4.6,17.7,2.1,2.1,0,0,0,1.7,1.2Zm0-46.8H54.3a2,2,0,0,0-1.6,1.2c-1.3,3.5-2.6,7.1-3.6,10.8s-.8,4.9-1.2,7.4H67.1C68.1,92,69,85.6,69.9,79.1Zm36.6-30.4V71.1h17.2A58.9,58.9,0,0,0,106.5,48.7Zm14,2.6a71.1,71.1,0,0,1,11.6,19.9h15C142.7,63.3,126.4,51.1,120.5,51.3ZM79.4,79.1c-.4,0-1.1.7-1.2,1.2Q76.9,86.2,75.8,92c-.3,2.1-.3,4.3-.5,6.5H98.5V79.3l-.5-.2Zm123.1,24.8c-.8,54.5-45.8,99.1-101.2,98.6S2.3,157,2.5,101.7,47.7,2.4,102.7,2.5,203.3,48.3,202.5,103.9Zm-40.2,38.8-6.3-6.4-6.9-6.8-2.8-2.6c.2-.2.2-.3.3-.3l8.5-8.6a21.5,21.5,0,0,0,2.3-2.8.8.8,0,0,0-.5-1.3l-1.8-.5H119.6l-1.5.2c-2.8.4-3.5,1.4-3.8,4.2,0,.4-.1.7-.1,1.1v35.3a13.3,13.3,0,0,0,.5,1.9.9.9,0,0,0,1.3.5l1.6-1.1,8.5-8.5,1.6-1.5,4.3,4.3,11.4,11.4a8.5,8.5,0,0,0,11.8.1c2.3-2.3,4.5-4.6,6.8-6.8A8.4,8.4,0,0,0,162.3,142.7Zm0-58.1c-7.8-23.9-24.2-38.6-49-43.6L107,40H97.6l-8.5,1.3C65.1,46.3,45.1,67,41,91.2c-.3,2.2-.7,4.5-1,6.7v9.3c.6,3.3.9,6.6,1.8,9.8q10.1,37.4,47.7,46.6c2.9.7,5.9.9,8.8,1.4h8.2v-8.7h-.1V133.9h.1V111.5a5,5,0,0,1,5-5H165C165.8,105.4,164.4,91,162.3,84.6ZM151,79.1H135.1c.9,6.6,1.8,13,2.7,19.4H157a53.8,53.8,0,0,0-4.8-18.6A1.6,1.6,0,0,0,151,79.1Zm-69.6-8H98.6V48.7A56.1,56.1,0,0,0,81.4,71.1Zm43.8,8H106.5V98.5h23.1a72.1,72.1,0,0,0-2.8-18.6A2.3,2.3,0,0,0,125.2,79.1Z"/>
</svg>
