<svg xmlns="http://www.w3.org/2000/svg" viewBox="0 0 205 205">
  <defs>
    <style>
      .a {
        fill: #231f20;
      }
    </style>
  </defs>
  <path class="a" d="M102.5,2.5a100,100,0,1,0,100,100A100,100,0,0,0,102.5,2.5ZM41.2,62.4H164.4c2.2.3,3,2.1,1.6,3.8a10.3,10.3,0,0,1-3.1,2.4L110.7,96.9a13.9,13.9,0,0,1-8.8,2.1,17.8,17.8,0,0,1-5.7-1.5c-18-9.6-36-19.4-53.9-29.2a7.9,7.9,0,0,1-2.7-2.1C38.2,64.4,39,62.7,41.2,62.4Zm126.6,74.8c-2.1,4.1-5.3,5.5-9.9,5.5-37.3-.2-74.5-.1-111.8-.1H44.5a8.1,8.1,0,0,1-7.3-7.6V71.4c.1-1.5.8-2.1,2.2-1.5a37.9,37.9,0,0,1,3.4,2L80.5,97.3l.8.6-1.4,1.6c-8,9-16.1,18-24.1,27.1a5.9,5.9,0,0,0-.7,2l2-.7a.7.7,0,0,0,.5-.4l19.1-16,11.1-9.4,7.1,4.5c5.3,3.2,10.5,3.2,15.7,0,2.4-1.4,4.8-3,7.2-4.5l1.3,1.1,29.2,24.6a14.3,14.3,0,0,0,2.2.8,10.2,10.2,0,0,0-.8-2.1L125.2,98.9l-.8-1,.4-.4,37.9-25.7a16.9,16.9,0,0,1,2.9-1.7,4.1,4.1,0,0,1,2.2.1Z"/>
</svg>
