<svg xmlns="http://www.w3.org/2000/svg" viewBox="0 0 205 205">
  <defs>
    <style>
      .a {
        fill: #231f20;
      }
    </style>
  </defs>
  <path class="a" d="M102.5,2.5a100,100,0,1,0,100,100A100,100,0,0,0,102.5,2.5Zm53.9,87.9c-.8,6.9-2.5,13.6-6.7,19.3s-11.6,10-19.2,12c-3.2.8-6.3,1.3-9.7,1.9,4.3,4.4,5.1,9.8,5.1,15.5s.1,13.8,0,20.7a6.8,6.8,0,0,0,.4,2.6,78.6,78.6,0,0,1-20.1,2.6,81.6,81.6,0,0,1-19.9-2.5,7.7,7.7,0,0,0,.4-2.7c-.1-4.6,0-9.2,0-14.1l-3.5.6c-6.3.4-12.5.4-18.1-3.3a14.9,14.9,0,0,1-4.8-6,78.4,78.4,0,0,0-5.3-9.4c-1.1-1.6-3.2-2.6-4.6-4a24.6,24.6,0,0,1-2.2-3.4c1.4-.3,2.8-.9,4.1-.8,4.8.7,8.3,3.5,11.1,7.5,1.6,2.3,3.3,4.9,5.5,6.7,5.3,4.4,11.3,3.2,17.2,1.1a1.8,1.8,0,0,0,.8-1.1c.6-1.8.9-3.6,1.6-5.3a39.9,39.9,0,0,1,2.9-4.7l-7.8-1.5c-7.4-1.6-14.1-4.8-19.3-10.6s-6.8-11.8-7.8-18.6-1.4-13.6,1-20.1a54.4,54.4,0,0,1,5.4-9.7,3.4,3.4,0,0,0,.5-3.1c-2.1-6.5-1.2-12.9,1.1-19.1a1.8,1.8,0,0,1,1.3-.9,21.9,21.9,0,0,1,6.3,1.1c4.5,1.9,8.8,4.3,13.3,6.5a3.5,3.5,0,0,0,2.4.5,74.4,74.4,0,0,1,27.4-1.8c3,.4,6.1,1.1,9.1,1.8a5.1,5.1,0,0,0,3.2-.5A133.8,133.8,0,0,1,140.6,41c1.8-.8,4.1-.8,6.1-1a1.9,1.9,0,0,1,1.4,1.1c2.3,6.3,3.1,12.7,1,19.3a2.6,2.6,0,0,0,.3,2.1C156.3,70.6,157.5,80.2,156.4,90.4Z"/>
</svg>
