<svg xmlns="http://www.w3.org/2000/svg" viewBox="0 0 205 205">
  <defs>
    <style>
      .a {
        fill: #231f20;
      }
    </style>
  </defs>
  <path class="a" d="M102.5,2.5a100,100,0,1,0,100,100A100,100,0,0,0,102.5,2.5ZM68,163.7c0,1.1,0,1.1-1.1,1.1H42.1V82.7c0-1.2,0-1.2,1.2-1.2H66.8c1.2,0,1.2,0,1.2,1.2ZM55,70.4A15.1,15.1,0,1,1,70.2,55.2,15,15,0,0,1,55,70.4Zm110,94.4H140c-1.1,0-1.1,0-1.1-1.1,0-14.5,0-28.9-.1-43.4a27.4,27.4,0,0,0-1.8-11,10.6,10.6,0,0,0-9.4-6.8,18.8,18.8,0,0,0-7.5.6c-4.3,1.2-6.9,4.1-8.4,8.2a24.5,24.5,0,0,0-1.5,8.5c-.1,14.6-.1,29.2-.2,43.7,0,1.5.1,1.3-1.3,1.3H85.1c-.8,0-1.1-.1-1.1-1,.1-27.1,0-54.2,0-81.2,0-.9.3-1.1,1.1-1.1h22.8c.9,0,1.1.3,1.1,1.1V92.9h.2l1.2-1.7a24.7,24.7,0,0,1,8.7-8,29,29,0,0,1,13.8-3.6,37.5,37.5,0,0,1,14.5,2,22.4,22.4,0,0,1,12.3,10.1,34.3,34.3,0,0,1,4.2,12.5,59.9,59.9,0,0,1,.9,8.4c.2,6.5.2,12.9.2,19.3v32.9Z"/>
</svg>
