<svg xmlns="http://www.w3.org/2000/svg" viewBox="0 0 205 205">
  <defs>
    <style>
      .a {
        fill: #231f20;
      }

      .b {
        fill: #fff;
      }
    </style>
  </defs>
  <g>
    <circle class="a" cx="102.5" cy="102.5" r="100"/>
    <path class="b" d="M143.7,139.5a3.2,3.2,0,0,1-2.1,2c-.8.1-1.7-.9-2.5-1.5v-1c.8-.5,1.5-1.5,2.4-1.7A1.8,1.8,0,0,1,143.7,139.5Zm-3.4-30.9h-3v7.5c-.1,3-.8,4.2-2.6,4.1s-2.6-1.3-2.7-4.1v-7.7l-3,.2c0,3.3-.2,6.5.1,9.6s1.9,4.1,4.4,4.5,5.3-.5,6-2.5C141,116.4,140.4,112.4,140.3,108.6Zm-10-17.4h22.8C151.2,89.8,131.9,89.8,130.3,91.2Zm-15.7,48.3,2.3,6.7h-45v-6.6h7.2v-3.4H52.6c-7.3-.1-12.5-5.2-12.6-12.5V70.1A12.3,12.3,0,0,1,52.7,57.8h47.8c11.6,0,23.1.1,34.6,0,7.6-.2,13.8,5.4,13.4,13.3-.2,3,0,6.1,0,9.4H127.3c-7.3,0-12.4,5.1-12.4,12.4v43.2h-5.4v3.3ZM84.1,78.3a10.4,10.4,0,0,0-.2-1.5H76.2c0,5.5.1,10.8,0,16.2a56.2,56.2,0,0,1-.8,9.2c-.6,2.8-3.1,3.6-5.8,3.7a4.8,4.8,0,0,1-5-3.3,14.4,14.4,0,0,1-1-5.4c-.2-5.7-.1-11.4-.1-17V76.9H55.6c0,7.6-.2,15,.1,22.5a12.5,12.5,0,0,0,2.8,8.1c4.3,5,9.9,5.6,15.7,4.3,3.1-.7,6.1-2.2,7.5-5.3a26.9,26.9,0,0,0,2.2-8.3C84.2,91.6,84.1,84.9,84.1,78.3Zm14.6-1.4H91v34.8h7.7Zm52.2,37.2c.9-1.8,2-3.5,3-5.3-4.5-2-4.1,2.2-5.5,4.2-1.8-1.7-1.4-6.1-5.9-4.2,1,1.8,1.9,3.5,3,5.2a2.3,2.3,0,0,1,0,2.9c-1.1,1.7-2,3.5-3.1,5.3,4.4,1.6,4.2-2.5,5.8-4.4,1.6,2.1,1.6,6,5.9,4.4-1.1-1.9-2.3-3.7-3.2-5.6A3.6,3.6,0,0,1,150.9,114.1Zm14,1.5h.1V138c0,5.8-3.5,9.2-9.2,9.2-9.4.1-18.9.1-28.3,0-5.7,0-9.3-3.4-9.3-9.1V93.3c0-5.9,3.5-9.4,9.5-9.4h28.2c5.5,0,9,3.6,9,9.1C165,100.5,164.9,108.1,164.9,115.6ZM122,94.1h39.1c.8-4-1.2-6.7-5.1-6.7H127.4C123.4,87.4,121.3,90,122,94.1Zm39.5,43.4c-.1-13.3-.1-26.6-.1-39.9,0-.6-.1-1.3-.1-2H121.9v4.2c-.1,12.7-.1,25.4-.1,38.2q0,5.7,5.7,5.7h27.8C159.8,143.7,161.5,142,161.5,137.5Z"/>
  </g>
</svg>
