<svg xmlns="http://www.w3.org/2000/svg" width="205" height="205" viewBox="0 0 205 205">
  <defs>
    <style>
      .a {
        fill: #231f20;
      }
    </style>
  </defs>
  <path class="a" d="M102.5,2.5a100,100,0,1,0,100,100A100,100,0,0,0,102.5,2.5ZM159,110.6q-24,24.3-48.4,48.3c-4.8,4.8-11.5,4.7-16.3-.1-16.2-15.9-32.2-32-48.1-48.1-4.5-4.5-5-11.2-.7-15.6C57.2,83.2,69.2,71.6,81.3,59.8c2.7,2.7,5.7,5.7,8.6,8.8a3.3,3.3,0,0,1,.7,2.6A12.3,12.3,0,0,0,95,81.9a4.7,4.7,0,0,1,1.4,3.2q.1,14.4,0,28.8A4.5,4.5,0,0,1,95,117c-5.4,4.9-6,12.6-1.2,17.7a12.1,12.1,0,0,0,17.4.1c4.8-5,4.3-12.9-1-17.7-.7-.6-1.6-1.6-1.6-2.4-.1-9,0-17.9,0-27.5,4,4,7.6,7.5,11,11.1a5.6,5.6,0,0,1,.8,3.4c-.2,6.1,4.2,11.8,10,12.6a12,12,0,0,0,13.7-8.8,11.9,11.9,0,0,0-7.7-14.3,5.9,5.9,0,0,0-3.1-.6c-3.5.8-5.5-1.2-7.6-3.5a86.1,86.1,0,0,0-6.8-6.7c-2.9-2.6-4.8-5.2-4.7-9.7s-5.4-10.2-11.2-10a7.7,7.7,0,0,1-6.6-2.8c-2.2-2.4-4.6-4.5-7.2-6.9a74.5,74.5,0,0,1,6.7-6.2c4.6-3.4,10.6-2.9,14.9,1.3,16.1,16,32.2,32,48.1,48.2C163.7,99.1,163.7,105.8,159,110.6Z"/>
</svg>
