<svg id="e6f8518b-f9bf-4db6-ae14-85ff22e7c64c" data-name="Layer 1" xmlns="http://www.w3.org/2000/svg" viewBox="0 0 125 125"><path d="M58.1667,2.5h8.6666c2.0161.3095,4.05.5339,6.0455.9414,23.7937,4.8568,39.5034,18.8953,47.048,41.9118,1.38,4.211,1.7415,8.756,2.5732,13.1468v8.3333c-.33,2.1777-.6281,4.3608-.9956,6.5321-3.8673,22.8489-22.4052,42.4092-45.0514,47.4662-3.1725.7084-6.4115,1.12-9.62,1.6684H58.5c-2.84-.4425-5.7317-.6775-8.5133-1.36Q13.94,112.296,4.1859,76.4362C3.34,73.3123,3.0483,70.038,2.5,66.8333V58.1667c.33-2.1783.6283-4.3621.9958-6.534C7.4322,28.372,26.575,8.5577,49.6733,3.8752,52.4819,3.3058,55.3345,2.9531,58.1667,2.5Zm8.1522,56.18H88.5437a69.3157,69.3157,0,0,0-2.7559-17.907c-.11-.3747-.99-.7386-1.5155-.7437-5.544-.0535-11.0887-.0356-16.6332-.0278-.4319.0006-.8637.073-1.32.1143ZM58.7035,40.1929a2.1826,2.1826,0,0,0-.5392-.1665c-5.9431-.0145-11.8864-.0443-17.8286.0238-.4162.0048-1.0914.6838-1.1932,1.1485-.8174,3.7308-1.6085,7.4718-2.2346,11.2384-.3389,2.0389-.34,4.134-.4961,6.2508H58.7035ZM36.6117,66.2992a2.2679,2.2679,0,0,0-.1347.5316,67.4318,67.4318,0,0,0,2.7182,17.3353,1.4782,1.4782,0,0,0,1.1391.7533c5.7646.0535,11.53.0455,17.295.0434a9.1988,9.1988,0,0,0,1.0232-.1048V66.2992Zm51.9251.06H66.325V85.0007c6.1931,0,12.28.0131,18.3658-.032a1.3949,1.3949,0,0,0,1.0744-.7248A71.7246,71.7246,0,0,0,88.5368,66.359ZM93.7887,40l2.6368,18.66H114.78a51.3773,51.3773,0,0,0-4.6021-17.866,1.5167,1.5167,0,0,0-1.0911-.7606C103.938,39.9835,98.7883,40,93.7887,40Zm-62.5731-.0031c-4.9451,0-9.99-.0336-15.0333.05a2.0593,2.0593,0,0,0-1.5113,1.11c-1.231,3.4288-2.47,6.867-3.42,10.38A63.5974,63.5974,0,0,0,10.1252,58.67H28.5537ZM31.2064,85.004c-.8958-6.3434-1.7661-12.5064-2.64-18.6929H10.3453a2.2751,2.2751,0,0,0-.1134.5568,52.0958,52.0958,0,0,0,4.4188,16.96,2.3006,2.3006,0,0,0,1.68,1.1254C21.32,85.0418,26.3114,85.004,31.2064,85.004ZM96.4545,66.282c-.91,6.3282-1.7936,12.4781-2.6835,18.6691,5.0616,0,10.2089.0251,15.3548-.0467a1.7781,1.7781,0,0,0,1.2083-1.0459c1.1172-3.1132,2.29-6.2208,3.1394-9.4114.6991-2.6255.978-5.3629,1.463-8.1651ZM58.71,10.8045A54.7327,54.7327,0,0,0,42.1981,32.3558H58.71ZM66.2885,114.2A54.8706,54.8706,0,0,0,82.8039,92.6333H66.2885Zm.0527-103.3368V32.392H82.8361A55.93,55.93,0,0,0,66.3412,10.8636Zm-7.6775,103.29V92.6205H42.1886A55.6678,55.6678,0,0,0,58.6637,114.154Zm-24.5894-81.73a74.8962,74.8962,0,0,1,11.0242-19.2,51.299,51.299,0,0,0-25.5585,19.2ZM79.461,111.968c8.9058-2.2754,23.0964-13.06,25.7239-19.4617-4.5257,0-9.0048-.0178-13.4832.0336a1.4365,1.4365,0,0,0-1.0418.7543A68.778,68.778,0,0,1,79.461,111.968Zm25.823-79.5155C101.1155,24.9116,85.43,13.1953,79.78,13.3814A67.87,67.87,0,0,1,90.9245,32.4525ZM19.46,92.502a53.19,53.19,0,0,0,25.6859,19.4621c-.0621-.3371-.047-.4668-.1045-.5371A67.8674,67.8674,0,0,1,34.3689,93.2951a1.4368,1.4368,0,0,0-1.0457-.7593C28.8379,92.484,24.3519,92.502,19.46,92.502Z" style="fill:#231f20"/></svg>