<svg xmlns="http://www.w3.org/2000/svg" width="205" height="205" viewBox="0 0 205 205">
  <defs>
    <style>
      .a {
        fill: #231f20;
      }
    </style>
  </defs>
  <path class="a" d="M133.3,202.5h-1.8c-3.1-1-4.1-3.4-4.1-6.6.1-8.7.1-17.4,0-26.2,0-7.1-1-13.9-6.4-19.4,4.2-.8,8.2-1.4,12.1-2.5,9.6-2.5,18.3-6.8,24.4-15.2s7.4-15.5,8.4-24.3c1.4-12.8-.2-24.9-8.9-35.2a3.4,3.4,0,0,1-.4-2.6c2.7-8.3,1.7-16.4-1.2-24.4a2.6,2.6,0,0,0-1.7-1.4c-2.6.3-5.4.3-7.8,1.3-5.6,2.4-11,5.3-16.4,8.2a5.4,5.4,0,0,1-4.1.7c-3.8-.8-7.7-1.7-11.6-2.2a93.4,93.4,0,0,0-34.5,2.2,4.4,4.4,0,0,1-3.1-.6c-5.6-2.7-11-5.8-16.7-8.2-2.5-1.1-5.3-1.1-8-1.4a2.5,2.5,0,0,0-1.7,1.1c-2.9,7.9-4,16-1.3,24.2.5,1.6.1,2.5-.7,3.9-2.4,3.9-5.1,7.9-6.7,12.3-3.1,8.2-2.6,16.8-1.3,25.3s3.9,16.8,9.8,23.4,15,11.5,24.4,13.4l9.9,1.9c-1.3,2.1-2.8,3.9-3.7,6s-1.3,4.4-2,6.6a2.6,2.6,0,0,1-1,1.4c-7.5,2.7-15,4.3-21.8-1.4-2.8-2.2-4.8-5.5-6.9-8.5-3.6-5-8-8.5-14.1-9.3-1.6-.2-3.3.6-5,1a18.8,18.8,0,0,0,2.7,4.2c1.8,1.8,4.3,3,5.8,5.1a104.7,104.7,0,0,1,6.6,11.8,18.5,18.5,0,0,0,6.2,7.6c7,4.8,14.8,4.8,22.8,4.2a43.9,43.9,0,0,0,4.4-.7c0,6.1-.1,11.9,0,17.7.1,3.4-1,5.6-4.2,6.6H71.9a97.3,97.3,0,0,1-42.1-27.4c-33.2-36.8-36.7-90.8-7.4-131C45.7,12,77.7-1.2,116.4,3.4c21.2,2.5,39.6,12.1,55.1,27.2a100.9,100.9,0,0,1,29.3,55.6c.7,4.1,1.1,8.2,1.7,12.2v13.1l-.9,6.9C198,146.1,185,168.5,163.9,186,154.8,193.5,144.4,198.7,133.3,202.5Z"/>
</svg>
