<svg id="a69f6ec2-d683-434c-af52-8ac857d8ce13" data-name="Layer 1" xmlns="http://www.w3.org/2000/svg" viewBox="0 0 125 125"><path d="M81.0064,120.9856H79.9145c-1.8979-.6081-2.4907-1.9663-2.4665-3.8744.0646-5.0931.0275-10.1875.02-15.2814-.0061-4.1828-.6423-8.1631-3.8791-11.3745,2.5231-.4909,4.9389-.8442,7.2925-1.442,5.7627-1.4636,10.9327-4.0076,14.6092-8.8847,3.1585-4.19,4.466-9.0959,5.0423-14.2126.8481-7.5286-.1061-14.6122-5.31-20.6084a1.8642,1.8642,0,0,1-.237-1.54c1.6173-4.8607,1.01-9.5955-.7353-14.2641a1.3992,1.3992,0,0,0-1.0347-.7846A15.4821,15.4821,0,0,0,88.56,29.44c-3.3717,1.4353-6.6355,3.1352-9.8854,4.8379a3.3364,3.3364,0,0,1-2.4233.3964c-2.3088-.4839-4.6193-1.0212-6.9575-1.2921a57.6119,57.6119,0,0,0-20.7084,1.2967,3.0922,3.0922,0,0,1-1.8609-.3685c-3.3551-1.59-6.629-3.3646-10.0437-4.8086a17.2617,17.2617,0,0,0-4.784-.7978,1.265,1.265,0,0,0-1.0054.6448c-1.7222,4.6186-2.421,9.3265-.7931,14.1211a2.3015,2.3015,0,0,1-.4175,2.2862,43.5783,43.5783,0,0,0-4.0339,7.1925c-1.8729,4.7915-1.5437,9.8475-.7835,14.8162.7718,5.0453,2.374,9.8364,5.9075,13.6933a26.3241,26.3241,0,0,0,14.6446,7.8466c1.9754.4033,3.9649.7373,5.8977,1.0937a29.6737,29.6737,0,0,0-2.201,3.5124,36.3425,36.3425,0,0,0-1.1906,3.8851,1.3172,1.3172,0,0,1-.6187.789c-4.4658,1.5868-8.994,2.4924-13.0633-.7943a24.7348,24.7348,0,0,1-4.1628-4.9664c-2.1138-2.9385-4.7741-5.0058-8.4084-5.4825a9.9559,9.9559,0,0,0-3.0546.5848,13.885,13.885,0,0,0,1.6253,2.4623c1.0858,1.0782,2.6288,1.7782,3.4852,2.9874a54.6964,54.6964,0,0,1,3.9921,6.9214,10.9282,10.9282,0,0,0,3.69,4.4428c4.2152,2.7652,8.9216,2.7676,13.6826,2.4322.8338-.0587,1.6584-.2484,2.6334-.4,0,3.569-.0723,6.977.0279,10.38.0576,1.9524-.6326,3.2323-2.5049,3.8336H44.1536a58.71,58.71,0,0,1-25.2571-16.0073C-1.0159,83.4459-3.1328,51.84,14.4191,28.3377,28.4222,9.5875,47.6434,1.8587,70.8239,4.5266c12.7583,1.4684,23.7787,7.095,33.0643,15.9413a58.3194,58.3194,0,0,1,17.5856,32.52c.4285,2.3594.6884,4.7494,1.0262,7.1252v7.6432c-.1734,1.3425-.3392,2.686-.5214,4.0273C119.7725,88.0222,111.9864,101.1,99.33,111.3183A57.71,57.71,0,0,1,81.0064,120.9856Z" style="fill:#231f20"/></svg>