<svg xmlns="http://www.w3.org/2000/svg" width="205" height="205" viewBox="0 0 205 205">
  <defs>
    <style>
      .a {
        fill: #231f20;
      }

      .b {
        fill: #fff;
      }
    </style>
  </defs>
  <g>
    <path class="a" d="M102.7,2.5c55.5,0,100.6,45.8,99.8,101.4S156.7,203,101.3,202.5,2.3,157,2.5,101.7,47.7,2.4,102.7,2.5Z"/>
    <path class="b" d="M151.4,39c0-2.8-.5-3.4-3.2-3.4H75.7a5.2,5.2,0,0,0-3.3,1.4c-5.7,5.5-11.3,11.3-17,16.9a5.4,5.4,0,0,0-1.9,4.3q.2,53.6.1,107.1c0,3.7.3,4,4,4h90c3.4,0,3.8-.5,3.8-3.9V39ZM118,52.5a9.5,9.5,0,1,1-9.9,9.3A9.6,9.6,0,0,1,118,52.5ZM99.7,88.3A16.2,16.2,0,0,1,110,74.6c1.5-.5,2.6-.3,3.2,1.3a4.7,4.7,0,0,0,4.4,3,4.6,4.6,0,0,0,4.6-3c.7-1.6,1.8-1.8,3.3-1.3a16.2,16.2,0,0,1,10.2,14.1c.1,2-.8,2.8-2.9,2.8h-30C100.3,91.5,99.6,90.8,99.7,88.3Zm2.6,63.7H68.9c-1.4,0-2.7-.4-2.7-2s1.3-2,2.7-2h33.4c1.5,0,2.7.3,2.8,1.9S103.7,152,102.3,152Zm35-15.4c-.6.3-68.3.2-68.6.2s-2.5-.5-2.5-2,1.2-2,2.5-2c5.8,0,67.9-.2,68.2.1s1.7,1.1,1.8,1.8S137.9,136.2,137.3,136.6Zm-71-17c.1-.7,1.1-1.5,1.8-2s68.5-.2,69,.1,1.5,1.1,1.6,1.7a2.8,2.8,0,0,1-1.4,1.9c-.5.4-69,.4-69.3.2S66.3,120.2,66.3,119.6Zm71-13.5c-.4.3-1.2.2-1.8.2h-66c-.6,0-1.3.2-1.7-.1s-1.5-1.3-1.5-1.8a3.3,3.3,0,0,1,1.6-1.9c.5-.3,1.3-.1,1.9-.1,11-.1,21.9-.1,32.9,0h32.9c.5,0,1.1-.2,1.5,0s1.5,1.2,1.6,1.8S137.9,105.7,137.3,106.1Z"/>
  </g>
</svg>
