<svg xmlns="http://www.w3.org/2000/svg" width="125" height="75" viewBox="0 0 125 75">
  <g>
    <path d="M63.1113,1.5c12.8641.08,25.0538,4.1891,36.1944,11.618a90.4582,90.4582,0,0,1,22.1748,21.4289,4.79,4.79,0,0,1,.0808,5.8011c-9.2182,12.2952-20.37,22.2157-34.6708,28.2038A62.098,62.098,0,0,1,57.737,73.3091,66.0927,66.0927,0,0,1,26.1805,62.2082,90.3717,90.3717,0,0,1,3.539,40.4859,4.8166,4.8166,0,0,1,3.4555,34.62C11.8437,23.421,21.9027,14.1776,34.569,8.0307A64.3912,64.3912,0,0,1,63.1113,1.5Zm-.68,10.9962A25.006,25.006,0,1,0,87.3981,37.5416,24.9289,24.9289,0,0,0,62.4317,12.4962Z" />
    <path d="M77.7224,37.4423A15.2129,15.2129,0,1,1,62.5291,22.214,15.2242,15.2242,0,0,1,77.7224,37.4423Z"/>
  </g>
</svg>
