<svg id="a464e85b-2f39-4989-9b7b-924fc01427ec" data-name="Layer 1" xmlns="http://www.w3.org/2000/svg" viewBox="0 0 205 205"><g id="b2dd66f4-69ef-46fa-bf32-e0a0e655ad3a" data-name="Git"><circle cx="102.5" cy="102.5" r="100" style="fill:#231f20"/><path d="M108.5566,87.1551c4.0777,4.0637,7.6852,7.5114,11.076,11.16.6883.7407.8048,2.2489.7665,3.3892-.2052,6.1137,4.2406,11.7622,10.03,12.5671,6.4334.8944,12.11-2.7585,13.6878-8.8081a11.9362,11.9362,0,0,0-7.735-14.294,6.309,6.309,0,0,0-3.0925-.5472c-3.4737.7428-5.5-1.2159-7.5645-3.4745-2.1535-2.3553-4.4043-4.6395-6.7772-6.7717-2.906-2.6113-4.8454-5.2258-4.7689-9.6471.0961-5.5514-5.4193-10.1912-11.1953-10.0136a7.8188,7.8188,0,0,1-6.5881-2.8473c-2.1541-2.3414-4.5853-4.4278-7.2025-6.9159a83.764,83.764,0,0,1,6.746-6.1875c4.5691-3.3619,10.5853-2.8811,14.8788,1.3727Q134.9835,70.08,158.9206,94.2513c4.7465,4.802,4.7813,11.5777.0513,16.366q-24.0181,24.3143-48.3378,48.33c-4.7906,4.728-11.5381,4.645-16.361-.1237q-24.189-23.9178-48.11-48.1058c-4.4976-4.5436-4.9931-11.2455-.7065-15.6065C57.1614,83.2029,69.2178,71.64,81.3111,59.7673c2.7,2.7335,5.7346,5.709,8.6248,8.819a3.6983,3.6983,0,0,1,.6957,2.574,12.17,12.17,0,0,0,4.4021,10.7641,4.8286,4.8286,0,0,1,1.4041,3.218q.1617,14.3739-.0033,28.75a4.8339,4.8339,0,0,1-1.467,3.139c-5.3456,4.8747-5.928,12.5921-1.1889,17.6287a12.0307,12.0307,0,0,0,17.4.103,12.18,12.18,0,0,0-1.0008-17.627,4.17,4.17,0,0,1-1.5517-2.4669C108.5141,105.747,108.5566,96.8229,108.5566,87.1551Z" style="fill:#fff"/></g></svg>