<svg xmlns="http://www.w3.org/2000/svg" viewBox="0 0 205 205">
  <defs>
    <style>
      .a {
        fill: #231f20;
      }

      .b {
        fill: #fff;
      }
    </style>
  </defs>
  <path class="a" d="M102.7,2.5c55.5,0,100.6,45.8,99.8,101.4S156.7,203,101.3,202.5,2.3,157,2.5,101.7,47.7,2.4,102.7,2.5Z"/>
  <path class="b" d="M155.1,113.4l1.8.5a.8.8,0,0,1,.5,1.3,21.5,21.5,0,0,1-2.3,2.8l-8.5,8.6c-.1,0-.1.1-.3.3l2.8,2.6,6.9,6.8,6.3,6.4a8.4,8.4,0,0,1-.3,11.8c-2.3,2.2-4.5,4.5-6.8,6.8a8.5,8.5,0,0,1-11.8-.1L132,149.8l-4.3-4.3-1.6,1.5-8.5,8.5-1.6,1.1a.9.9,0,0,1-1.3-.5,13.3,13.3,0,0,1-.5-1.9V118.9c0-.4.1-.7.1-1.1.3-2.8,1-3.8,3.8-4.2l1.5-.2Z"/>
  <path class="b" d="M106.5,156.3h-.1V133.9h.1V111.5a5,5,0,0,1,5-5H165c.8-1.1-.6-15.5-2.7-21.9-7.8-23.9-24.2-38.6-49-43.6L107,40H97.6l-8.5,1.3C65.1,46.3,45.1,67,41,91.2c-.3,2.2-.7,4.5-1,6.7v9.3c.6,3.3.9,6.6,1.8,9.8q10.1,37.4,47.7,46.6c2.9.7,5.9.9,8.8,1.4h8.2ZM151,79.1a1.6,1.6,0,0,1,1.2.8A53.8,53.8,0,0,1,157,98.5H137.8c-.9-6.4-1.8-12.8-2.7-19.4Zm-3.9-7.9h-15a71.1,71.1,0,0,0-11.6-19.9C126.4,51.1,142.7,63.3,147.1,71.2ZM106.5,48.7a58.9,58.9,0,0,1,17.2,22.4H106.5Zm0,30.5h18.7a2.3,2.3,0,0,1,1.6.8,72.1,72.1,0,0,1,2.8,18.6H106.5Zm-22.1-28a76.5,76.5,0,0,0-11.5,20H57.8A52.9,52.9,0,0,1,84.4,51.2ZM49.1,91.1c1-3.7,2.3-7.3,3.6-10.8a2,2,0,0,1,1.6-1.2H69.9C69,85.6,68.1,92,67.1,98.5H47.9C48.3,96,48.5,93.5,49.1,91.1Zm3.6,33.6A51.5,51.5,0,0,1,48.1,107c-.1-.1,0-.3.1-.5h19c.9,6.4,1.8,12.8,2.7,19.4H54.4A2.1,2.1,0,0,1,52.7,124.7Zm5,9.1c5.1,0,9.7-.1,14.4,0a1.3,1.3,0,0,1,1.1.8,70.6,70.6,0,0,0,11.1,18.9c.1,0,.1.2.1.5A55,55,0,0,1,57.7,133.8ZM75.4,107a4.3,4.3,0,0,0,.1-.5h23v19.3H79.4c-.4-.1-1.1-.5-1.2-.8A74.2,74.2,0,0,1,75.4,107Zm23.1,49.3a58.9,58.9,0,0,1-17.2-22.4H98.5Zm0-57.8H75.3c.2-2.2.2-4.4.5-6.5q1-5.9,2.4-11.7c.1-.5.8-1.2,1.2-1.2H98l.5.2Zm.1-27.4H81.4A56.1,56.1,0,0,1,98.6,48.7Z"/>
</svg>
