<svg xmlns="http://www.w3.org/2000/svg" width="205" height="205" viewBox="0 0 205 205">
  <defs>
    <style>
      .a {
        fill: #231f20;
      }

      .b {
        fill: #fff;
      }
    </style>
  </defs>
  <g>
    <circle class="a" cx="102.5" cy="102.5" r="100"/>
    <path class="b" d="M125.9,139.1c0-5.7-.8-11.1-5.1-15.5,3.4-.6,6.5-1.1,9.7-1.9,7.6-2,14.4-5.4,19.2-12s5.9-12.4,6.7-19.3c1.1-10.2-.1-19.8-7-27.9a2.6,2.6,0,0,1-.3-2.1c2.1-6.6,1.3-13-1-19.3a1.9,1.9,0,0,0-1.4-1.1c-2,.2-4.3.2-6.1,1a133.8,133.8,0,0,0-13.1,6.6,5.1,5.1,0,0,1-3.2.5c-3-.7-6.1-1.4-9.1-1.8a74.4,74.4,0,0,0-27.4,1.8,3.5,3.5,0,0,1-2.4-.5c-4.5-2.2-8.8-4.6-13.3-6.5A21.9,21.9,0,0,0,65.8,40a1.8,1.8,0,0,0-1.3.9c-2.3,6.2-3.2,12.6-1.1,19.1a3.4,3.4,0,0,1-.5,3.1,54.4,54.4,0,0,0-5.4,9.7c-2.4,6.5-2,13.4-1,20.1s3.1,13.3,7.8,18.6,11.9,9,19.3,10.6l7.8,1.5a39.9,39.9,0,0,0-2.9,4.7c-.7,1.7-1,3.5-1.6,5.3a1.8,1.8,0,0,1-.8,1.1c-5.9,2.1-11.9,3.3-17.2-1.1-2.2-1.8-3.9-4.4-5.5-6.7-2.8-4-6.3-6.8-11.1-7.5-1.3-.1-2.7.5-4.1.8a24.6,24.6,0,0,0,2.2,3.4c1.4,1.4,3.5,2.4,4.6,4a78.4,78.4,0,0,1,5.3,9.4,14.9,14.9,0,0,0,4.8,6c5.6,3.7,11.8,3.7,18.1,3.3l3.5-.6c0,4.9-.1,9.5,0,14.1a7.7,7.7,0,0,1-.4,2.7,81.6,81.6,0,0,0,19.9,2.5,78.6,78.6,0,0,0,20.1-2.6,6.8,6.8,0,0,1-.4-2.6Q126.1,149.5,125.9,139.1Z"/>
  </g>
</svg>
