<?xml version="1.0" encoding="utf-8"?>
<!-- Generator: Adobe Illustrator 24.0.1, SVG Export Plug-In . SVG Version: 6.00 Build 0)  -->
<svg version="1.1" id="Layer_1" xmlns="http://www.w3.org/2000/svg" xmlns:xlink="http://www.w3.org/1999/xlink" x="0px" y="0px"
	 width="96px" height="93.6px" viewBox="0 0 96 93.6" style="enable-background:new 0 0 96 93.6;" xml:space="preserve">
<g id="Layer_2_1_">
	<g id="Layer_1-2">
		<g>
			<path d="M78.4,6C84.7963,6,90,11.2037,90,17.6V76c0,6.3963-5.2037,11.6-11.6,11.6H17.6C11.2037,87.6,6,82.3963,6,76V17.6
				C6,11.2037,11.2037,6,17.6,6H78.4 M78.4,0H17.6C7.8798,0,0,7.8798,0,17.6V76c0,9.7202,7.8798,17.6,17.6,17.6h60.8
				C88.1202,93.6,96,85.7202,96,76V17.6C96,7.8798,88.1202,0,78.4,0L78.4,0z"/>
		</g>
		<path d="M27.2,53.76l-3.2,12c0,0.32-0.16,0.48-0.64,0.48h-5.92c-0.32,0-0.48-0.16-0.32-0.64l11.36-39.68
			c0.2498-1.0475,0.3574-2.1238,0.32-3.2c0-0.32,0.16-0.32,0.32-0.32h8.32c0.32,0,0.32,0,0.48,0.32l12.8,43c0,0.32,0,0.48-0.32,0.48
			h-6.56c-0.2507-0.0045-0.486-0.1221-0.64-0.32L40,53.76H27.2z M38.4,47.36c-1.12-4.48-3.84-14.08-4.8-18.88l0,0
			c-0.8,4.64-3,12.64-4.64,18.88H38.4z M59.84,51.36c0,5.44,2.72,9.12,8.64,9.12c2.2417,0.0661,4.4697-0.3713,6.52-1.28
			c0.32-0.16,0.48,0,0.48,0.32v5c-0.0058,0.2967-0.1196,0.5811-0.32,0.8c-2.08,1.12-4.8,1.44-8,1.44
			c-10.56,0-14.56-7.84-14.56-16.48c0-9.44,5-17.12,13.44-17.12c8.64,0,11.68,7.36,11.68,13.28
			c0.029,1.3938-0.0781,2.7871-0.32,4.16c-0.0101,0.2166-0.1834,0.3899-0.4,0.4c-2.2296,0.2655-4.4753,0.3724-6.72,0.32L59.84,51.36
			z M68,45.92h3v-0.64C71,43,69.92,39,65.76,39c-3.84,0-5.44,3.36-5.92,6.88L68,45.92z"/>
	</g>
</g>
</svg>
