<svg xmlns="http://www.w3.org/2000/svg" viewBox="0 0 205 205">
  <defs>
    <style>
      .a {
        fill: #231f20;
      }

      .b {
        fill: #fff;
      }
    </style>
  </defs>
  <g>
    <circle class="a" cx="102.5" cy="102.5" r="100"/>
    <path class="b" d="M109.2,92.9H109V82.6c0-.8-.2-1.1-1.1-1.1H85.1c-.8,0-1.1.2-1.1,1.1,0,27,.1,54.1,0,81.2,0,.9.3,1,1.1,1h23.6c1.4,0,1.3.2,1.3-1.3.1-14.5.1-29.1.2-43.7a24.5,24.5,0,0,1,1.5-8.5c1.5-4.1,4.1-7,8.4-8.2a18.8,18.8,0,0,1,7.5-.6,10.6,10.6,0,0,1,9.4,6.8,27.4,27.4,0,0,1,1.8,11c.1,14.5.1,28.9.1,43.4,0,1.1,0,1.1,1.1,1.1h25V131.9c0-6.4,0-12.8-.2-19.3a59.9,59.9,0,0,0-.9-8.4,34.3,34.3,0,0,0-4.2-12.5,22.4,22.4,0,0,0-12.3-10.1,37.5,37.5,0,0,0-14.5-2,29,29,0,0,0-13.8,3.6,24.7,24.7,0,0,0-8.7,8ZM42.1,164.8H66.9c1.1,0,1.1,0,1.1-1.1v-81c0-1.2,0-1.2-1.2-1.2H43.3c-1.2,0-1.2,0-1.2,1.2v82.1ZM40,55.2a15.1,15.1,0,1,0,15.2-15A15,15,0,0,0,40,55.2Z"/>
  </g>
</svg>
